<?xml version="1.0" encoding="UTF-8"?>
<svg width="752pt" height="752pt" version="1.1" viewBox="0 0 752 752" xmlns="http://www.w3.org/2000/svg">
 <path d="m360.88 339.49h30.25l21.391 21.391v30.25l-21.391 21.391h-30.25l-21.391-21.391v-30.25zm-21.391 21.391-92.465-8.2461c-2.7344 15.199-2.7617 31.004-0.089843 46.207l92.555-7.7148-71.215 59.547c8.8477 12.73 19.914 23.863 32.617 32.746l59.992-70.902-8.2461 92.465c15.219 2.7305 30.977 2.7617 46.207 0.089843l-7.7148-92.555 59.555 71.215c12.715-8.8281 23.867-19.93 32.738-32.617l-70.902-59.992 92.465 8.2461c2.7305-15.219 2.7617-30.977 0.089843-46.207l-92.555 7.7148 71.215-59.555c-8.832-12.719-19.934-23.863-32.617-32.746l-59.992 70.91 8.2461-92.465c-15.219-2.7305-30.977-2.7617-46.207-0.089843l7.7148 92.555-59.547-71.215c-12.754 8.8594-23.84 19.902-32.75 32.617l70.91 59.992zm-109.38-9.7539-79.082-7.0469 39.211 59.5 39.766-3.3125c-2.6836-16.227-2.6445-32.93 0.10547-49.141zm25.164 110.43-60.93 50.953 69.801 14.348 25.793-30.492c-13.43-9.625-25.086-21.332-34.664-34.809zm95.852 60.344-7.0469 79.082 59.5-39.211-3.3125-39.766c-16.227 2.6836-32.922 2.6445-49.141-0.10547zm110.43-25.164 50.953 60.93 14.348-69.801-30.492-25.793c-9.625 13.43-21.332 25.086-34.809 34.664zm60.344-95.852 79.082 7.0469-39.211-59.5-39.766 3.3125c2.6836 16.227 2.6445 32.922-0.10547 49.141zm-25.164-110.43 60.93-50.953-69.801-14.348-25.793 30.492c13.43 9.625 25.086 21.332 34.664 34.809zm-95.852-60.344 7.0469-79.082-59.5 39.211 3.3125 39.766c16.227-2.6836 32.93-2.6445 49.141 0.10547zm-110.43 25.164-50.953-60.93-14.348 69.801 30.492 25.793c9.625-13.43 21.332-25.086 34.809-34.664z" fill-rule="evenodd"/>
</svg>
